<svg width="32" height="32" viewBox="0 0 32 32" fill="none" xmlns="http://www.w3.org/2000/svg">
<path d="M15.3333 2.6665L7.99992 14.6665H22.6666L15.3333 2.6665ZM15.3333 7.7865L17.9066 11.9998H12.7466L15.3333 7.7865ZM22.6666 17.3332C19.3466 17.3332 16.6666 20.0132 16.6666 23.3332C16.6666 26.6532 19.3466 29.3332 22.6666 29.3332C25.9866 29.3332 28.6666 26.6532 28.6666 23.3332C28.6666 20.0132 25.9866 17.3332 22.6666 17.3332ZM22.6666 26.6665C20.8266 26.6665 19.3333 25.1732 19.3333 23.3332C19.3333 21.4932 20.8266 19.9998 22.6666 19.9998C24.5066 19.9998 25.9999 21.4932 25.9999 23.3332C25.9999 25.1732 24.5066 26.6665 22.6666 26.6665ZM3.33325 28.6665H13.9999V17.9998H3.33325V28.6665ZM5.99992 20.6665H11.3333V25.9998H5.99992V20.6665Z" fill="#1C1B1F"/>
</svg>
