<svg width="32" height="33" viewBox="0 0 32 33" fill="none" xmlns="http://www.w3.org/2000/svg">
<path d="M29.3333 13.1533H22.9466L17.1066 4.40668C16.8533 4.03335 16.4266 3.84668 15.9999 3.84668C15.5733 3.84668 15.1466 4.03335 14.8933 4.42001L9.05325 13.1533H2.66659C1.93325 13.1533 1.33325 13.7533 1.33325 14.4867C1.33325 14.6067 1.34659 14.7267 1.38659 14.8467L4.77325 27.2067C5.07992 28.3267 6.10659 29.1533 7.33325 29.1533H24.6666C25.8933 29.1533 26.9199 28.3267 27.2399 27.2067L30.6266 14.8467L30.6666 14.4867C30.6666 13.7533 30.0666 13.1533 29.3333 13.1533ZM15.9999 7.55335L19.7333 13.1533H12.2666L15.9999 7.55335ZM24.6666 26.4867L7.34659 26.5L4.41325 15.82H27.5999L24.6666 26.4867ZM15.9999 18.4867C14.5333 18.4867 13.3333 19.6867 13.3333 21.1533C13.3333 22.62 14.5333 23.82 15.9999 23.82C17.4666 23.82 18.6666 22.62 18.6666 21.1533C18.6666 19.6867 17.4666 18.4867 15.9999 18.4867Z" fill="#1C1B1F"/>
</svg>
