<svg width="32" height="32" viewBox="0 0 32 32" fill="none" xmlns="http://www.w3.org/2000/svg">
<path d="M15.9999 5.3335V1.3335L10.6666 6.66683L15.9999 12.0002V8.00016C20.4132 8.00016 23.9999 11.5868 23.9999 16.0002C23.9999 17.3468 23.6666 18.6268 23.0666 19.7335L25.0132 21.6802C26.0532 20.0402 26.6666 18.0935 26.6666 16.0002C26.6666 10.1068 21.8932 5.3335 15.9999 5.3335ZM15.9999 24.0002C11.5866 24.0002 7.99992 20.4135 7.99992 16.0002C7.99992 14.6535 8.33325 13.3735 8.93325 12.2668L6.98658 10.3202C5.94658 11.9602 5.33325 13.9068 5.33325 16.0002C5.33325 21.8935 10.1066 26.6668 15.9999 26.6668V30.6668L21.3332 25.3335L15.9999 20.0002V24.0002Z" fill="#1C1B1F"/>
</svg>
